<?xml version="1.0" encoding="UTF-8" standalone="no" ?>
<!DOCTYPE svg PUBLIC "-//W3C//DTD SVG 1.1//EN" "http://www.w3.org/Graphics/SVG/1.1/DTD/svg11.dtd">
<svg xmlns="http://www.w3.org/2000/svg" xmlns:xlink="http://www.w3.org/1999/xlink" version="1.1" width="1080" height="1080" viewBox="0 0 1080 1080" xml:space="preserve">
<desc>Created with Fabric.js 5.2.4</desc>
<defs>
</defs>
<rect x="0" y="0" width="100%" height="100%" fill="transparent"></rect>
<g transform="matrix(1 0 0 1 540 540)" id="94608765-2d2c-4287-852b-7e091159c748"  >
<rect style="stroke: none; stroke-width: 1; stroke-dasharray: none; stroke-linecap: butt; stroke-dashoffset: 0; stroke-linejoin: miter; stroke-miterlimit: 4; fill: rgb(255,255,255); fill-rule: nonzero; opacity: 1; visibility: hidden;" vector-effect="non-scaling-stroke"  x="-540" y="-540" rx="0" ry="0" width="1080" height="1080" />
</g>
<g transform="matrix(1 0 0 1 540 540)" id="51178573-1771-411f-bd86-dd022a3c7e7a"  >
</g>
<g transform="matrix(1 0 0 1 540 540)"  >
<g style="" vector-effect="non-scaling-stroke"   >
		<g transform="matrix(0.13 0 0 -0.13 0 0)"  >
<path style="stroke: none; stroke-width: 1; stroke-dasharray: none; stroke-linecap: butt; stroke-dashoffset: 0; stroke-linejoin: miter; stroke-miterlimit: 4; fill: rgb(255,255,255); fill-rule: nonzero; opacity: 1;" vector-effect="non-scaling-stroke"  transform=" translate(-5128.71, -5305.32)" d="M 1691 8904 C 1661 8866 1649 8812 1636 8663 L 1625 8531 L 1581 8550 C 1554 8563 1488 8619 1405 8700 C 1331 8771 1264 8830 1256 8830 C 1247 8830 1237 8818 1234 8804 C 1226 8771 1276 8442 1300 8370 C 1310 8340 1316 8312 1312 8309 C 1308 8306 1270 8277 1228 8246 C 1147 8186 1099 8134 1013 8014 C 939 7910 921 7869 909 7777 C 894 7660 913 7676 521 7444 C 420 7384 320 7320 299 7302 C 252 7262 249 7231 284 7162 C 312 7107 437 6966 489 6930 C 509 6916 546 6889 570 6868 C 629 6820 704 6783 760 6775 C 791 6771 843 6777 930 6795 C 1187 6849 1214 6852 1285 6847 C 1363 6840 1387 6826 1437 6761 C 1495 6686 1513 6570 1504 6317 C 1496 6091 1506 6013 1562 5872 L 1605 5765 L 1612 5854 C 1619 5950 1643 6067 1665 6115 L 1678 6145 L 1679 6113 C 1681 6058 1719 5909 1757 5815 C 1840 5606 1934 5458 2068 5324 C 2162 5231 2163 5226 2080 5216 C 1960 5202 1849 5198 1395 5191 L 905 5185 L 820 5140 C 717 5086 629 5006 593 4933 L 567 4879 L 567 4622 C 567 4396 570 4354 589 4270 C 622 4122 658 3941 681 3814 C 692 3749 706 3688 712 3676 C 718 3664 751 3624 785 3585 C 818 3547 870 3480 900 3437 C 956 3355 995 3320 1028 3320 C 1060 3320 1063 3337 1041 3374 C 1011 3422 1015 3426 1056 3390 C 1076 3373 1104 3354 1118 3349 C 1154 3335 1190 3346 1190 3369 C 1190 3384 1175 3393 1133 3408 L 1075 3427 L 1115 3434 C 1179 3444 1242 3481 1273 3526 C 1310 3579 1320 3662 1296 3723 C 1281 3763 1281 3770 1295 3796 C 1313 3830 1315 3913 1299 3961 C 1278 4021 1221 4088 1149 4135 C 1105 4165 1078 4190 1074 4206 C 1071 4219 1069 4296 1071 4378 C 1075 4504 1078 4530 1096 4560 C 1163 4675 1348 4694 1710 4622 C 1823 4600 1951 4573 1995 4561 C 2039 4550 2163 4523 2270 4501 C 2377 4479 2515 4450 2575 4436 C 2815 4381 3128 4367 3277 4406 C 3390 4435 3497 4496 3575 4575 C 3701 4702 3719 4778 3639 4842 C 3616 4860 3573 4896 3543 4923 C 3512 4949 3483 4970 3478 4970 C 3474 4970 3473 4933 3476 4888 C 3484 4785 3470 4732 3423 4680 C 3342 4590 3110 4522 2963 4545 L 2915 4553 L 2980 4570 C 3105 4603 3235 4676 3313 4756 C 3388 4833 3410 4956 3376 5112 C 3356 5209 3356 5253 3377 5343 C 3392 5408 3394 5412 3401 5385 C 3405 5369 3408 5339 3409 5319 C 3409 5299 3426 5251 3445 5212 C 3490 5122 3578 5039 3687 4982 L 3768 4940 L 3780 4970 C 3787 4987 3794 4999 3797 4997 C 3799 4995 3791 4972 3780 4946 C 3762 4904 3762 4895 3774 4866 C 3789 4830 3799 4826 3893 4815 C 3963 4806 3966 4792 3912 4729 C 3891 4705 3853 4658 3828 4624 C 3769 4547 3681 4466 3621 4434 C 3596 4421 3561 4402 3544 4392 L 3513 4374 L 3609 4357 C 3834 4317 3955 4323 4311 4395 C 4573 4448 4768 4530 4970 4675 C 5102 4769 5219 4840 5243 4840 C 5253 4840 5259 4836 5256 4831 C 5252 4826 5250 4773 5249 4713 C 5249 4612 5253 4586 5314 4340 C 5350 4194 5384 4040 5389 3997 C 5403 3899 5403 3736 5390 3690 C 5373 3627 5326 3567 5268 3532 C 5139 3455 4759 3345 4450 3296 C 4431 3293 4388 3285 4355 3278 C 4321 3271 4222 3265 4125 3265 C 3956 3265 3884 3256 3912 3239 C 3920 3234 3889 3230 3835 3230 C 3769 3230 3735 3225 3705 3211 C 3656 3188 3596 3134 3605 3120 C 3608 3115 3642 3110 3679 3110 L 3747 3110 L 3746 3028 C 3745 2950 3747 2942 3777 2900 C 3850 2794 3922 2748 3982 2769 C 4036 2788 4047 2783 4077 2728 C 4115 2657 4172 2627 4268 2628 C 4365 2628 4409 2643 4503 2707 C 4570 2753 4604 2768 4685 2790 C 4740 2805 4871 2843 4975 2873 C 5276 2961 5602 3049 5765 3086 C 5875 3111 5941 3133 6013 3167 C 6066 3193 6110 3216 6110 3219 C 6110 3223 6091 3234 6068 3245 C 6008 3273 5991 3325 5991 3480 C 5990 3746 6088 3972 6283 4156 C 6386 4253 6482 4304 6665 4355 C 7050 4465 7247 4602 7365 4845 C 7427 4972 7444 5043 7444 5175 C 7443 5345 7400 5463 7297 5575 L 7241 5635 L 7265 5585 C 7297 5516 7310 5444 7310 5342 C 7310 5062 7199 4829 7003 4697 C 6897 4627 6704 4540 6653 4540 C 6644 4540 6684 4574 6742 4615 C 6886 4717 7013 4868 7056 4989 C 7065 5014 7079 5049 7086 5067 C 7109 5120 7102 5116 7048 5047 C 6996 4983 6879 4881 6792 4826 C 6730 4787 6564 4705 6500 4681 C 6437 4658 6219 4590 6207 4590 C 6202 4590 6207 4602 6217 4618 C 6228 4633 6260 4688 6290 4740 C 6405 4943 6633 5211 6821 5363 C 6852 5388 6852 5390 6830 5384 C 6656 5339 6390 5170 6209 4990 C 6060 4841 5938 4629 5876 4410 C 5861 4358 5847 4314 5845 4311 C 5842 4309 5832 4318 5821 4331 L 5802 4355 L 5796 4290 C 5788 4206 5793 3981 5802 3987 C 5807 3989 5810 3996 5810 4001 C 5810 4021 5925 4206 5964 4248 C 6021 4310 6105 4370 6208 4423 C 6258 4449 6301 4470 6304 4470 C 6307 4470 6291 4453 6268 4433 C 6071 4258 5929 4053 5861 3844 C 5822 3725 5780 3473 5780 3352 C 5780 3301 5807 3313 5490 3215 C 5355 3174 5182 3119 5105 3095 C 5028 3071 4898 3030 4817 3005 C 4611 2942 4516 2904 4438 2854 C 4313 2774 4286 2766 4230 2795 C 4174 2824 4174 2844 4227 2901 C 4282 2960 4310 2975 4445 3021 L 4545 3055 L 4470 3058 C 4344 3063 4201 3044 4160 3015 C 4141 3002 4105 2977 4081 2961 C 4055 2942 4025 2930 4006 2930 C 3969 2930 3901 2960 3880 2985 C 3867 3001 3870 3007 3916 3049 C 3944 3075 3984 3101 4006 3108 C 4027 3115 4117 3125 4205 3130 C 4468 3144 4733 3199 5140 3322 C 5519 3437 5588 3524 5605 3905 C 5627 4411 5674 4651 5814 4972 C 5868 5095 5882 5122 5968 5248 C 6045 5361 6241 5561 6328 5614 C 6362 5636 6388 5655 6386 5658 C 6379 5665 6281 5630 6210 5596 C 6014 5501 5819 5317 5697 5111 C 5578 4911 5517 4712 5498 4463 C 5491 4379 5485 4312 5484 4313 C 5476 4320 5410 4636 5404 4691 C 5388 4851 5460 5062 5608 5285 C 5634 5323 5715 5415 5790 5490 C 5904 5604 5941 5635 6030 5687 C 6228 5802 6365 5846 6565 5857 C 6765 5867 7009 5814 7188 5720 C 7230 5698 7266 5682 7268 5685 C 7278 5695 7151 5814 7076 5864 C 6934 5959 6805 6006 6588 6039 C 6293 6084 6175 6078 5905 6004 C 5786 5971 5681 5926 5694 5913 C 5697 5910 5743 5916 5797 5926 C 5926 5950 6137 5951 6194 5926 C 6216 5917 6231 5907 6227 5904 C 6224 5901 6173 5894 6113 5889 C 6043 5883 5961 5867 5880 5844 C 5768 5812 5715 5788 5561 5702 C 5537 5689 5520 5683 5524 5688 C 5536 5708 5510 5711 5475 5694 C 5434 5675 5417 5655 5449 5664 C 5505 5680 5515 5681 5500 5671 C 5476 5655 5492 5651 5545 5661 C 5573 5666 5624 5673 5659 5675 C 5695 5677 5744 5682 5768 5686 C 5849 5698 5810 5667 5694 5628 C 5549 5578 5389 5514 5315 5477 C 5239 5440 5121 5370 5115 5359 C 5106 5345 5183 5362 5238 5386 C 5299 5413 5305 5410 5252 5379 C 5232 5367 5190 5333 5160 5305 C 5050 5202 4821 5066 4668 5012 C 4499 4952 4394 4935 4195 4935 C 3943 4935 3927 4947 4088 5014 C 4136 5034 4216 5073 4266 5101 C 4414 5185 4693 5377 4792 5463 C 4843 5507 4939 5586 5005 5638 C 5071 5690 5132 5739 5140 5747 C 5155 5761 4967 5678 4946 5661 C 4927 5646 4672 5510 4516 5432 C 4356 5352 4137 5275 3985 5245 C 3868 5222 3711 5228 3695 5256 C 3690 5265 3673 5286 3658 5301 C 3642 5317 3630 5339 3630 5350 C 3630 5364 3626 5369 3618 5364 C 3611 5360 3619 5372 3635 5390 C 3674 5433 3770 5477 3982 5549 C 4077 5581 4180 5618 4210 5630 C 4240 5642 4346 5681 4445 5716 C 4865 5867 5313 6040 5305 6049 C 5303 6051 5270 6045 5233 6036 C 5196 6027 5107 6009 5035 5995 C 4964 5982 4833 5957 4745 5940 C 4553 5903 4488 5893 4309 5875 C 4160 5860 4139 5860 4128 5875 C 4123 5881 4120 5881 4120 5873 C 4120 5864 4065 5861 3908 5861 L 3695 5860 L 3817 5928 C 3934 5993 4162 6082 4176 6067 C 4186 6057 4170 6040 4151 6040 C 4139 6040 4131 6031 4128 6015 C 4122 5985 4123 5985 4255 6041 C 4305 6062 4364 6084 4387 6091 C 4410 6097 4427 6107 4423 6113 C 4420 6118 4426 6119 4439 6115 C 4450 6112 4460 6113 4460 6118 C 4460 6134 4559 6158 4710 6180 C 4904 6208 5123 6250 5134 6260 C 5138 6265 5120 6271 5094 6275 C 4862 6306 4784 6325 4648 6385 C 4559 6424 4308 6574 4365 6555 C 4376 6551 4410 6539 4440 6529 C 4563 6485 4795 6430 4935 6411 C 5122 6385 5574 6374 5735 6391 C 5801 6397 5959 6403 6085 6404 C 6303 6404 6321 6403 6425 6377 C 6570 6341 6873 6202 7025 6102 C 7108 6047 7268 5895 7352 5791 C 7451 5668 7577 5394 7600 5250 C 7631 5060 7573 4808 7465 4667 C 7404 4587 7218 4444 7184 4451 C 7181 4452 7154 4431 7123 4405 C 7036 4329 6813 4238 6660 4215 C 6579 4202 6581 4198 6696 4116 C 6878 3986 7059 3892 7270 3818 C 7396 3773 7462 3755 7704 3699 C 8043 3621 8187 3564 8330 3455 C 8417 3388 8434 3373 8714 3111 C 8982 2860 9511 2296 9493 2280 C 9489 2276 9467 2267 9445 2260 C 9336 2226 9289 2180 9185 1997 C 9112 1869 9092 1799 9125 1787 C 9143 1779 9170 1791 9190 1814 C 9207 1836 9219 1834 9213 1811 C 9206 1783 9226 1753 9271 1724 C 9318 1695 9456 1675 9553 1683 C 9628 1690 9796 1771 9866 1834 C 9958 1916 10008 2049 9995 2176 C 9977 2359 9901 2475 9480 2976 C 9298 3191 9113 3443 9037 3575 C 8971 3692 8903 3875 8880 4001 L 8869 4057 L 8821 4052 C 8748 4045 8526 4078 8430 4110 C 8297 4154 8255 4182 8127 4314 C 8023 4420 8003 4446 7963 4528 C 7938 4579 7919 4622 7921 4624 C 7923 4626 7954 4592 7988 4548 C 8023 4504 8054 4471 8056 4473 C 8066 4482 7899 4951 7834 5098 C 7785 5208 7732 5345 7725 5378 C 7720 5402 7722 5410 7732 5410 C 7740 5410 7797 5369 7860 5319 C 8041 5175 8161 5113 8361 5058 C 8429 5039 8470 5035 8582 5035 C 8657 5035 8721 5037 8724 5040 C 8734 5050 8707 5131 8691 5139 C 8682 5144 8626 5158 8565 5170 C 8431 5196 8296 5252 8184 5327 C 8072 5401 8051 5428 8127 5399 C 8174 5381 8341 5342 8420 5330 C 8544 5312 8778 5316 8909 5340 C 9209 5394 9485 5550 9645 5755 C 9738 5874 9807 5991 9832 6075 C 9857 6157 9862 6259 9841 6284 C 9829 6299 9822 6291 9779 6214 C 9688 6051 9572 5923 9434 5829 C 9361 5780 9230 5716 9221 5725 C 9217 5730 9253 5771 9400 5932 C 9665 6222 9783 6523 9767 6865 C 9755 7125 9660 7352 9484 7539 C 9387 7642 9312 7698 9187 7762 C 9101 7807 9070 7818 9070 7804 C 9070 7801 9103 7759 9143 7712 C 9322 7500 9395 7370 9445 7179 C 9464 7105 9482 7016 9485 6980 L 9490 6915 L 9475 6968 C 9454 7042 9368 7206 9302 7298 C 9222 7411 9163 7481 8948 7720 C 8842 7839 8743 7950 8728 7968 C 8703 7998 8681 8012 8696 7989 C 8711 7965 8662 8000 8624 8042 C 8485 8193 8427 8358 8450 8534 C 8464 8636 8487 8719 8508 8744 C 8545 8785 8461 8730 8406 8677 C 8256 8530 8169 8313 8168 8085 C 8167 7896 8222 7733 8339 7578 C 8387 7513 8490 7361 8490 7354 C 8490 7349 8362 7428 8320 7458 C 8301 7473 8246 7520 8198 7563 C 8149 7606 8106 7640 8101 7638 C 8076 7629 8139 7513 8241 7375 C 8343 7239 8443 7078 8469 7010 C 8505 6913 8511 6725 8481 6615 C 8431 6435 8317 6309 8149 6251 C 8083 6228 7990 6210 7990 6220 C 7990 6225 8009 6239 8033 6253 C 8056 6267 8103 6308 8138 6344 C 8231 6441 8297 6594 8288 6697 L 8285 6735 L 8258 6685 C 8204 6582 8105 6492 7975 6427 C 7861 6370 7795 6356 7630 6356 C 7449 6356 7380 6371 6973 6494 C 6671 6586 6363 6603 5968 6551 C 5936 6547 5910 6546 5910 6550 C 5910 6561 5938 6583 6014 6634 C 6053 6659 6077 6680 6069 6680 C 6061 6680 5990 6669 5912 6655 C 5604 6602 5317 6588 4985 6611 C 4734 6629 4492 6683 4341 6755 C 4289 6780 4250 6803 4253 6806 C 4255 6809 4293 6807 4336 6801 C 4380 6795 4467 6788 4530 6785 L 4645 6779 L 4515 6848 C 4325 6949 4015 7128 3811 7255 C 3752 7292 3547 7450 3552 7455 C 3557 7460 3710 7434 3780 7416 C 3815 7407 3889 7379 3943 7354 C 3998 7329 4044 7311 4047 7313 C 4061 7328 3972 7435 3876 7518 C 3721 7654 3543 7743 3177 7869 C 3096 7897 3021 7924 3012 7930 C 2980 7950 3324 7935 3408 7913 C 3447 7902 3480 7896 3480 7900 C 3480 7912 3404 7978 3344 8019 C 3204 8113 3007 8179 2773 8211 C 2722 8218 2680 8226 2680 8229 C 2680 8232 2717 8255 2763 8280 C 2839 8321 2980 8443 2980 8467 C 2980 8472 2938 8465 2888 8452 C 2744 8415 2626 8418 2426 8463 C 2339 8483 2246 8500 2219 8501 L 2169 8503 L 2116 8579 C 2051 8671 1874 8859 1815 8900 C 1760 8938 1719 8939 1691 8904 z M 1795 8723 C 1856 8614 1990 8257 1990 8203 C 1990 8191 1994 8179 1999 8176 C 2012 8167 2019 8289 2010 8370 C 2005 8411 1992 8481 1981 8525 C 1959 8617 1969 8610 2025 8495 C 2068 8409 2085 8308 2072 8225 C 2066 8192 2064 8162 2066 8158 C 2069 8154 2061 8146 2050 8140 C 2038 8134 2026 8121 2022 8111 C 2011 8081 1973 8102 1965 8142 C 1954 8198 1898 8363 1876 8405 L 1855 8445 L 1849 8335 C 1842 8224 1824 8150 1804 8143 C 1797 8141 1784 8181 1769 8247 C 1749 8338 1746 8384 1745 8535 C 1745 8693 1751 8770 1764 8770 C 1767 8770 1780 8749 1795 8723 z M 1630 8317 C 1630 8296 1622 8276 1610 8265 C 1599 8255 1592 8245 1595 8242 C 1606 8231 1565 8177 1508 8128 C 1474 8099 1431 8060 1411 8041 C 1379 8010 1378 8007 1401 8013 C 1556 8048 1579 8051 1645 8045 C 1726 8038 1912 7990 2020 7950 C 2099 7920 2188 7894 2230 7888 C 2249 7885 2239 7879 2188 7863 C 2136 7846 2114 7843 2089 7850 C 2067 7856 2052 7856 2046 7850 C 2040 7844 2029 7840 2020 7841 C 2010 7841 2011 7844 2025 7850 C 2044 7858 2044 7859 2023 7859 C 2011 7860 1998 7856 1995 7850 C 1992 7845 1979 7839 1967 7838 C 1955 7837 1974 7834 2010 7831 L 2075 7825 L 2015 7812 C 1982 7805 1933 7792 1907 7784 C 1841 7761 1707 7770 1565 7805 C 1382 7850 1262 7830 1146 7735 C 1114 7709 1093 7700 1066 7700 C 1032 7700 1030 7702 1030 7733 C 1031 7934 1268 8200 1558 8325 C 1589 8338 1618 8349 1623 8350 C 1627 8350 1630 8335 1630 8317 z M 8380 8250 C 8380 8153 8554 7909 8744 7741 C 8908 7596 9112 7393 9157 7330 C 9215 7249 9316 7074 9345 7002 C 9359 6967 9385 6882 9402 6812 C 9430 6696 9432 6675 9427 6565 C 9420 6385 9373 6200 9307 6090 C 9257 6005 9156 5888 9097 5846 C 9002 5779 8847 5705 8715 5665 C 8570 5621 8528 5622 8615 5667 C 8775 5750 8963 5938 9042 6093 C 9100 6209 9143 6399 9135 6503 C 9126 6610 9091 6822 9069 6900 C 9015 7092 8890 7261 8646 7475 C 8491 7610 8470 7634 8411 7760 C 8343 7903 8327 8046 8356 8230 C 8363 8271 8380 8286 8380 8250 z M 2698 8060 C 2710 8060 2720 8056 2720 8052 C 2720 8047 2710 8044 2698 8045 C 2686 8046 2669 8039 2660 8031 C 2646 8017 2646 8014 2660 8008 C 2684 7998 2621 7999 2535 8011 C 2494 8016 2431 8023 2397 8025 C 2276 8031 2281 8030 2314 8040 C 2329 8045 2378 8051 2423 8054 C 2467 8057 2506 8062 2509 8066 C 2512 8069 2551 8069 2595 8066 C 2639 8063 2685 8061 2698 8060 z M 2630 7813 C 2856 7767 3094 7631 3342 7407 C 3438 7320 3780 6962 3788 6940 C 3794 6924 3436 7101 3371 7147 C 3253 7229 3099 7363 3110 7374 C 3115 7379 3120 7396 3120 7411 C 3120 7426 3125 7440 3132 7442 C 3154 7450 2947 7565 2896 7574 C 2868 7579 2867 7579 2876 7556 C 2879 7547 2890 7540 2899 7540 C 2909 7540 2922 7528 2928 7514 C 2935 7499 2945 7492 2952 7496 C 2959 7500 2960 7499 2956 7491 C 2952 7485 2943 7483 2937 7487 C 2884 7521 2840 7554 2839 7561 C 2838 7566 2837 7574 2836 7580 C 2835 7593 2790 7624 2783 7616 C 2780 7613 2808 7565 2845 7508 C 2963 7329 2984 7282 2990 7176 C 2994 7097 2997 7085 3012 7086 C 3022 7087 3027 7084 3024 7079 C 3021 7074 3024 7070 3029 7070 C 3045 7070 3043 6918 3028 6898 C 3021 6890 2980 6864 2938 6842 L 2862 6802 L 2856 6849 C 2853 6874 2848 6922 2844 6955 C 2835 7034 2799 7147 2751 7242 L 2713 7318 L 2746 7322 C 2769 7325 2780 7322 2780 7313 C 2780 7306 2785 7300 2790 7300 C 2796 7300 2800 7293 2800 7285 C 2800 7277 2805 7270 2811 7270 C 2828 7270 2817 7290 2743 7395 C 2706 7448 2661 7514 2645 7541 C 2628 7568 2578 7630 2533 7679 C 2450 7769 2446 7780 2501 7780 C 2526 7780 2526 7807 2500 7815 C 2489 7818 2480 7825 2480 7830 C 2480 7840 2523 7835 2630 7813 z M 1534 7694 C 1546 7690 1538 7679 1502 7650 C 1476 7629 1430 7587 1400 7555 C 1355 7508 1349 7499 1370 7505 C 1384 7509 1424 7529 1460 7550 C 1585 7623 1751 7660 1950 7660 C 2151 7659 2235 7625 2375 7485 C 2479 7382 2537 7283 2570 7154 C 2599 7043 2596 7024 2561 7085 C 2518 7159 2426 7259 2330 7338 C 2252 7401 2180 7448 2180 7435 C 2180 7432 2203 7402 2231 7368 C 2299 7283 2394 7092 2415 6995 C 2439 6889 2432 6705 2400 6605 C 2379 6539 2334 6440 2326 6440 C 2324 6440 2324 6466 2327 6498 C 2334 6576 2307 6741 2270 6852 C 2223 6992 2131 7164 2059 7245 C 1948 7371 1851 7429 1711 7456 C 1632 7471 1609 7469 1659 7452 C 1731 7427 1877 7301 1934 7216 C 1954 7186 1970 7159 1970 7156 C 1970 7153 1949 7166 1923 7186 C 1808 7274 1636 7330 1433 7345 C 1278 7357 1190 7332 1331 7316 C 1524 7295 1739 7178 1831 7044 C 1847 7020 1874 6970 1890 6933 L 1920 6865 L 1892 6897 C 1845 6952 1763 7001 1637 7050 C 1386 7148 1128 7149 976 7053 C 865 6983 748 6952 659 6971 C 600 6983 536 7016 505 7050 C 486 7071 486 7072 505 7103 C 515 7121 541 7167 561 7205 L 599 7275 L 502 7280 L 406 7285 L 490 7334 C 868 7555 937 7590 997 7590 C 1021 7590 1040 7586 1040 7581 C 1040 7565 977 7516 867 7446 C 808 7408 761 7376 763 7374 C 765 7372 789 7379 817 7390 C 844 7400 911 7420 965 7434 C 1020 7449 1080 7471 1099 7485 C 1119 7499 1150 7522 1169 7535 C 1188 7549 1213 7560 1226 7560 C 1266 7560 1300 7579 1358 7634 C 1389 7664 1426 7690 1440 7693 C 1480 7700 1517 7701 1534 7694 z M 8771 6941 C 8893 6795 8953 6631 8946 6455 C 8942 6341 8921 6276 8857 6170 C 8762 6013 8577 5881 8380 5830 C 8355 5824 8319 5815 8300 5810 C 8249 5796 7978 5805 7878 5824 C 7749 5848 7532 5947 7332 6073 C 7297 6095 7271 6114 7272 6116 C 7284 6128 7352 6122 7367 6107 C 7388 6089 7506 6030 7559 6012 C 7632 5987 7596 6011 7466 6073 C 7358 6125 7323 6138 7293 6135 C 7272 6133 7251 6135 7245 6138 C 7240 6142 7233 6145 7230 6146 C 7209 6150 7109 6209 7024 6268 C 7006 6280 7006 6281 7025 6274 C 7365 6155 7657 6093 7910 6085 C 8118 6079 8272 6117 8413 6210 C 8525 6284 8604 6381 8658 6513 C 8728 6681 8723 6843 8642 7069 C 8633 7095 8686 7042 8771 6941 z M 1260 6990 C 1260 6977 1307 6977 1315 6989 C 1318 6995 1333 6995 1353 6989 C 1395 6977 1450 6977 1450 6990 C 1450 6996 1455 7000 1461 7000 C 1466 7000 1468 6996 1465 6990 C 1461 6984 1471 6980 1489 6980 C 1505 6980 1522 6976 1525 6970 C 1529 6964 1495 6960 1432 6960 C 1365 6960 1289 6951 1201 6934 C 1081 6910 1020 6908 1020 6928 C 1020 6937 1116 6980 1138 6980 C 1147 6980 1162 6985 1170 6990 C 1190 7003 1260 7003 1260 6990 z M 2105 6667 C 2153 6482 2158 6359 2129 6050 C 2123 5987 2113 5861 2107 5771 L 2095 5606 L 2042 5701 C 1971 5831 1932 5940 1925 6036 C 1921 6080 1915 6138 1910 6165 C 1905 6193 1898 6287 1895 6375 C 1892 6470 1882 6571 1871 6625 C 1861 6675 1854 6716 1855 6718 C 1856 6719 1881 6681 1909 6633 C 1958 6551 2009 6424 2011 6376 C 2012 6365 2016 6375 2021 6399 C 2032 6457 2037 6773 2027 6830 L 2020 6875 L 2050 6817 C 2067 6785 2091 6718 2105 6667 z M 3577 6741 C 3711 6717 3840 6677 3948 6625 C 4066 6569 4217 6479 4284 6426 C 4306 6409 4360 6376 4404 6353 C 4451 6328 4476 6310 4464 6310 C 4453 6310 4363 6331 4264 6356 C 4166 6382 4056 6409 4020 6417 C 3924 6437 3615 6446 3527 6430 C 3265 6384 2986 6223 2894 6067 C 2849 5990 2851 5979 2903 6027 C 3014 6129 3242 6220 3491 6261 C 3613 6281 3994 6245 4068 6206 C 4090 6194 4085 6193 4016 6187 C 3890 6176 3667 6132 3557 6096 C 3446 6060 3287 5988 3208 5940 C 3181 5923 3155 5912 3149 5915 C 3144 5919 3141 5918 3142 5913 C 3147 5898 3062 5828 3049 5836 C 3041 5841 3040 5839 3045 5830 C 3051 5820 3049 5818 3037 5823 C 3026 5827 3011 5817 2990 5792 C 2973 5772 2964 5754 2970 5752 C 2975 5750 2969 5730 2956 5707 C 2928 5659 2890 5523 2890 5471 C 2890 5428 2901 5439 2925 5504 C 2958 5593 3112 5738 3255 5813 C 3292 5833 3531 5920 3547 5920 C 3549 5920 3529 5901 3504 5878 C 3391 5774 3271 5573 3228 5415 C 3208 5344 3206 5310 3205 5109 L 3205 4883 L 3175 4840 C 3122 4763 3051 4717 2920 4675 C 2848 4651 2813 4646 2692 4642 C 2508 4636 2423 4648 2095 4724 C 1797 4792 1532 4832 1334 4837 C 1109 4844 1062 4833 991 4762 C 919 4690 905 4635 905 4430 C 906 4290 909 4253 928 4187 C 956 4087 991 4018 1046 3954 C 1093 3899 1110 3864 1110 3824 C 1110 3803 1106 3800 1072 3800 C 1022 3800 961 3843 926 3902 C 913 3926 882 3989 859 4043 C 836 4097 816 4139 814 4137 C 808 4131 851 3890 865 3849 C 884 3797 948 3710 992 3677 C 1010 3663 1049 3642 1078 3630 C 1134 3606 1141 3593 1110 3565 C 1069 3528 944 3580 880 3661 C 824 3733 816 3749 786 3875 C 721 4137 700 4282 696 4485 C 688 4845 719 4930 888 5008 L 945 5034 L 1420 5041 C 1812 5047 1925 5052 2065 5069 C 2159 5080 2271 5090 2315 5090 C 2493 5090 2656 5052 2808 4976 C 2867 4946 2990 4905 2990 4915 C 2990 4917 2974 4936 2954 4957 C 2843 5076 2752 5280 2715 5494 L 2703 5565 L 2690 5511 C 2682 5475 2679 5416 2682 5332 C 2688 5189 2685 5189 2623 5317 C 2544 5481 2540 5709 2612 5930 C 2641 6021 2714 6166 2755 6216 C 2811 6283 2795 6302 2724 6254 C 2664 6214 2614 6162 2566 6090 C 2438 5898 2394 5732 2388 5407 C 2387 5348 2383 5297 2379 5294 C 2366 5287 2340 5332 2320 5397 C 2288 5500 2278 5604 2290 5714 C 2308 5886 2335 5977 2417 6142 C 2487 6281 2500 6300 2579 6379 C 2779 6581 2968 6687 3230 6745 C 3303 6761 3474 6759 3577 6741 z M 1743 6550 C 1784 6470 1793 6447 1780 6455 C 1774 6458 1770 6456 1770 6451 C 1770 6445 1777 6440 1785 6440 C 1798 6440 1803 6422 1799 6394 C 1799 6390 1803 6384 1808 6381 C 1814 6378 1824 6347 1831 6313 C 1841 6262 1842 6226 1832 6128 C 1825 6060 1820 5989 1820 5970 C 1819 5944 1817 5939 1810 5951 C 1786 5992 1758 6132 1740 6298 C 1721 6474 1698 6603 1678 6645 C 1655 6694 1712 6610 1743 6550 z M 8109 4046 C 8259 3994 8451 3939 8590 3907 L 8655 3893 L 8596 3885 C 8399 3859 8137 3915 7880 4036 C 7777 4085 7610 4177 7610 4185 C 7610 4194 7973 4093 8109 4046 z M 8798 3380 C 8805 3380 8808 3385 8804 3392 C 8800 3399 8801 3400 8808 3396 C 8815 3392 8820 3382 8820 3374 C 8820 3351 8840 3358 8841 3383 L 8843 3405 L 8847 3382 C 8850 3366 8856 3360 8867 3364 C 8905 3379 9198 3066 9330 2871 C 9390 2781 9450 2679 9450 2666 C 9450 2662 9430 2682 9406 2712 C 9382 2741 9329 2794 9289 2830 C 9117 2982 8710 3410 8710 3440 C 8710 3444 8727 3432 8747 3414 C 8767 3395 8790 3380 8798 3380 z" stroke-linecap="round" />
</g>
		<g transform="matrix(0.13 0 0 -0.13 -333.07 183.08)"  >
<path style="stroke: none; stroke-width: 1; stroke-dasharray: none; stroke-linecap: butt; stroke-dashoffset: 0; stroke-linejoin: miter; stroke-miterlimit: 4; fill: rgb(255,255,255); fill-rule: nonzero; opacity: 1;" vector-effect="non-scaling-stroke"  transform=" translate(-2630.7, -3932.19)" d="M 1995 4430 C 1991 4424 1923 4376 1842 4323 C 1761 4270 1677 4215 1656 4201 C 1607 4169 1590 4128 1590 4048 C 1590 3928 1628 3821 1692 3763 C 1742 3716 2229 3537 2505 3464 C 2633 3430 2656 3426 2775 3426 C 2966 3427 3227 3472 3380 3531 C 3487 3572 3545 3626 3620 3753 C 3666 3830 3677 3856 3669 3867 C 3660 3877 3654 3878 3643 3868 C 3623 3852 3610 3874 3610 3927 C 3610 3989 3595 4022 3567 4018 C 3549 4016 3543 4006 3536 3965 C 3531 3938 3525 3913 3524 3911 C 3522 3909 3500 3915 3476 3924 C 3433 3940 3430 3945 3414 4001 C 3399 4054 3395 4060 3371 4060 C 3344 4060 3286 4024 3263 3993 C 3251 3978 3246 3978 3198 4001 C 3157 4020 3131 4025 3066 4025 C 2954 4025 2900 3998 2845 3914 L 2805 3854 L 2715 3867 C 2611 3881 2473 3914 2421 3936 L 2385 3952 L 2500 3995 C 2563 4018 2676 4061 2750 4090 C 2955 4169 2990 4179 3157 4199 C 3305 4218 3330 4223 3318 4235 C 3304 4249 3180 4260 3035 4260 C 2947 4260 2828 4267 2770 4275 C 2659 4290 2331 4359 2133 4410 C 1998 4444 2003 4443 1995 4430 z M 1807 3975 C 1819 3967 1891 3929 1967 3891 C 2098 3826 2275 3760 2453 3709 C 2496 3697 2527 3684 2523 3680 C 2519 3676 2488 3667 2456 3661 C 2415 3652 2401 3645 2411 3639 C 2433 3625 2417 3628 2303 3659 C 2187 3691 1998 3763 1917 3807 C 1858 3840 1798 3905 1783 3954 C 1771 3994 1775 3997 1807 3975 z" stroke-linecap="round" />
</g>
</g>
</g>
</svg>