<?xml version="1.0" encoding="UTF-8" standalone="no" ?>
<!DOCTYPE svg PUBLIC "-//W3C//DTD SVG 1.1//EN" "http://www.w3.org/Graphics/SVG/1.1/DTD/svg11.dtd">
<svg xmlns="http://www.w3.org/2000/svg" xmlns:xlink="http://www.w3.org/1999/xlink" version="1.1" width="1080" height="1080" viewBox="0 0 1080 1080" xml:space="preserve">
<desc>Created with Fabric.js 5.2.4</desc>
<defs>
</defs>
<rect x="0" y="0" width="100%" height="100%" fill="transparent"></rect>
<g transform="matrix(1 0 0 1 540 540)" id="94608765-2d2c-4287-852b-7e091159c748"  >
<rect style="stroke: none; stroke-width: 1; stroke-dasharray: none; stroke-linecap: butt; stroke-dashoffset: 0; stroke-linejoin: miter; stroke-miterlimit: 4; fill: rgb(255,255,255); fill-rule: nonzero; opacity: 1; visibility: hidden;" vector-effect="non-scaling-stroke"  x="-540" y="-540" rx="0" ry="0" width="1080" height="1080" />
</g>
<g transform="matrix(1 0 0 1 540 540)" id="51178573-1771-411f-bd86-dd022a3c7e7a"  >
</g>
<g transform="matrix(1 0 0 1 540 540)"  >
<g style="" vector-effect="non-scaling-stroke"   >
		<g transform="matrix(0.13 0 0 -0.13 0 0)"  >
<path style="stroke: none; stroke-width: 1; stroke-dasharray: none; stroke-linecap: butt; stroke-dashoffset: 0; stroke-linejoin: miter; stroke-miterlimit: 4; fill: rgb(255,255,255); fill-rule: nonzero; opacity: 1;" vector-effect="non-scaling-stroke"  transform=" translate(-3810, -3909.61)" d="M 745 7391 C 544 7334 377 7163 326 6964 C 312 6908 310 6609 310 3910 C 310 1211 312 912 326 856 C 378 653 553 478 756 426 C 812 412 1111 410 3810 410 C 6509 410 6808 412 6864 426 C 7067 478 7242 653 7294 856 C 7308 912 7310 1211 7310 3910 C 7310 6609 7308 6908 7294 6964 C 7242 7167 7067 7342 6864 7394 C 6808 7408 6510 7410 3804 7409 C 994 7409 801 7407 745 7391 z M 5250 7102 C 5250 7089 5317 6942 5433 6700 C 5501 6557 5566 6401 5595 6310 C 5605 6280 5654 6142 5706 6004 L 5799 5754 L 5780 5643 C 5758 5515 5699 5273 5668 5183 C 5644 5113 5640 5126 5732 4965 C 5757 4921 5829 4793 5892 4680 C 5956 4567 6071 4372 6150 4245 C 6228 4119 6308 3989 6327 3958 C 6345 3926 6388 3867 6420 3825 C 6453 3784 6480 3748 6480 3745 C 6480 3742 6461 3740 6438 3740 C 6414 3739 6350 3732 6295 3724 C 6240 3716 6119 3705 6026 3698 L 5857 3687 L 5863 3618 C 5881 3407 5815 3007 5717 2725 C 5638 2500 5530 2280 5498 2280 C 5487 2280 5470 2300 5451 2338 C 5423 2393 5421 2394 5412 2370 C 5372 2269 5109 1940 4862 1682 C 4830 1648 4814 1645 4769 1664 C 4752 1671 4713 1631 4496 1384 C 4393 1267 4268 1140 4063 945 C 3971 857 3878 767 3857 745 L 3818 705 L 3681 834 C 3354 1144 3077 1439 2941 1623 C 2918 1654 2894 1680 2887 1680 C 2880 1680 2866 1667 2857 1650 C 2847 1634 2835 1620 2830 1620 C 2826 1620 2799 1651 2770 1690 C 2742 1728 2701 1774 2679 1791 C 2576 1873 2322 2176 2261 2290 C 2238 2334 2215 2370 2210 2370 C 2205 2370 2187 2347 2169 2320 C 2151 2292 2134 2270 2130 2270 C 2091 2270 1955 2557 1877 2805 C 1849 2893 1798 3145 1779 3285 C 1773 3335 1767 3443 1766 3526 L 1765 3677 L 1619 3684 C 1539 3687 1459 3694 1441 3700 C 1423 3705 1354 3714 1287 3721 C 1220 3728 1162 3736 1158 3739 C 1154 3742 1178 3786 1212 3835 C 1246 3885 1300 3970 1333 4025 C 1365 4080 1402 4139 1414 4155 C 1426 4172 1454 4217 1476 4255 C 1499 4294 1546 4372 1581 4430 C 1617 4488 1666 4571 1690 4615 C 1714 4659 1777 4769 1830 4860 C 1884 4951 1939 5047 1953 5073 L 1978 5121 L 1960 5163 C 1931 5228 1840 5682 1840 5759 C 1840 5793 1959 6161 2045 6390 C 2070 6459 2150 6634 2222 6780 C 2293 6926 2361 7067 2371 7094 C 2410 7191 2395 7195 2551 7053 C 2628 6982 2713 6907 2739 6885 C 2965 6696 3028 6640 3120 6554 C 3178 6500 3263 6416 3309 6368 L 3393 6280 L 3798 6280 L 4204 6280 L 4365 6438 C 4530 6600 4683 6736 4995 6997 C 5094 7079 5184 7157 5195 7170 L 5215 7192 L 5232 7153 C 5242 7132 5250 7109 5250 7102 z" stroke-linecap="round" />
</g>
		<g transform="matrix(0.13 0 0 -0.13 -0.18 -1.99)"  >
<path style="stroke: none; stroke-width: 1; stroke-dasharray: none; stroke-linecap: butt; stroke-dashoffset: 0; stroke-linejoin: miter; stroke-miterlimit: 4; fill: rgb(255,255,255); fill-rule: nonzero; opacity: 1;" vector-effect="non-scaling-stroke"  transform=" translate(-3808.65, -3924.52)" d="M 5080 6803 C 4842 6601 4650 6426 4482 6261 L 4289 6070 L 3809 6068 L 3328 6065 L 3187 6208 C 3057 6340 2902 6482 2600 6749 C 2537 6804 2483 6850 2480 6850 C 2470 6850 2317 6528 2281 6433 C 2229 6295 2163 6080 2141 5976 C 2130 5921 2118 5875 2115 5872 C 2112 5869 2102 5874 2091 5884 C 2073 5900 2072 5899 2061 5856 C 2055 5831 2050 5777 2050 5736 C 2050 5606 2124 5265 2177 5154 L 2202 5101 L 2119 4958 C 2074 4879 2025 4795 2011 4770 C 1889 4551 1581 4038 1519 3952 L 1479 3895 L 1592 3888 C 1654 3884 1762 3880 1831 3879 L 1957 3877 L 1963 3611 C 1966 3465 1975 3298 1984 3240 C 2011 3046 2117 2634 2163 2544 L 2187 2496 L 2204 2567 C 2213 2606 2225 2651 2230 2666 C 2241 2694 2242 2693 2286 2610 C 2350 2490 2505 2261 2597 2150 C 2640 2098 2698 2026 2725 1990 C 2753 1955 2781 1919 2788 1910 C 2798 1898 2800 1917 2798 2018 C 2795 2133 2801 2165 2815 2120 C 2835 2056 3042 1783 3218 1589 C 3329 1465 3805 990 3817 990 C 3840 990 4320 1492 4476 1680 C 4637 1874 4789 2081 4806 2132 C 4813 2151 4815 2147 4821 2105 C 4825 2078 4829 2022 4829 1983 C 4830 1943 4833 1910 4838 1910 C 4842 1910 4865 1939 4890 1973 C 4914 2007 4973 2084 5020 2144 C 5067 2204 5138 2303 5179 2364 C 5254 2475 5350 2652 5350 2677 C 5350 2684 5354 2690 5358 2690 C 5363 2690 5375 2655 5384 2613 C 5394 2570 5407 2515 5413 2490 L 5424 2445 L 5446 2495 C 5499 2611 5610 3055 5636 3250 C 5652 3371 5660 3687 5651 3827 L 5647 3889 L 5871 3895 C 6126 3902 6141 3903 6138 3910 C 6136 3913 6092 3980 6039 4060 C 5928 4228 5760 4506 5673 4665 C 5640 4726 5595 4804 5573 4840 C 5476 5000 5419 5111 5428 5123 C 5446 5146 5521 5400 5551 5543 C 5576 5661 5581 5702 5578 5787 C 5576 5843 5572 5892 5568 5895 C 5565 5898 5547 5895 5528 5887 L 5493 5872 L 5477 5964 C 5445 6145 5366 6374 5251 6620 C 5214 6700 5175 6786 5166 6813 C 5156 6839 5148 6860 5147 6859 C 5146 6859 5116 6834 5080 6803 z M 2645 6408 C 2695 6363 2854 6206 3000 6058 C 3146 5911 3272 5790 3281 5790 C 3290 5790 3315 5798 3336 5807 C 3370 5821 3423 5823 3775 5824 C 4068 5824 4192 5820 4240 5811 C 4352 5788 4357 5789 4424 5866 C 4501 5955 4882 6335 4983 6424 C 5026 6462 5065 6489 5069 6484 C 5096 6453 5206 6141 5231 6025 C 5245 5958 5249 5650 5237 5581 L 5229 5538 L 5257 5545 C 5272 5548 5297 5563 5312 5577 C 5327 5592 5342 5602 5344 5599 C 5348 5594 5309 5468 5279 5390 C 5267 5360 5234 5298 5207 5252 L 5157 5170 L 5139 5199 C 5129 5215 5092 5250 5056 5277 C 5000 5319 4993 5327 5005 5340 C 5075 5418 5141 5762 5120 5936 C 5108 6034 5045 6260 5030 6260 C 5019 6260 5001 6191 4989 6104 C 4974 5996 4946 5876 4916 5796 C 4887 5718 4819 5587 4786 5542 L 4763 5510 L 4739 5536 C 4708 5569 4608 5630 4584 5630 C 4574 5630 4524 5616 4473 5598 L 4380 5567 L 4427 5533 C 4562 5439 4656 5366 4765 5271 C 4933 5125 5274 4777 5384 4640 C 5471 4532 5710 4172 5710 4149 C 5710 4143 5701 4141 5690 4145 C 5677 4149 5664 4145 5653 4135 C 5626 4107 5443 4120 5230 4164 C 5101 4190 5030 4200 4960 4200 L 4865 4200 L 4925 4172 C 5000 4136 5101 4031 5165 3923 C 5219 3830 5221 3818 5180 3830 C 5163 3835 5148 3835 5145 3830 C 5137 3817 5081 3803 4970 3784 C 4696 3739 4558 3656 4476 3488 C 4447 3429 4435 3386 4415 3264 C 4382 3065 4361 2998 4301 2914 C 4235 2820 4164 2758 4066 2710 C 3943 2649 3834 2636 3698 2665 C 3564 2693 3396 2805 3319 2917 C 3275 2981 3233 3102 3209 3238 C 3163 3499 3089 3626 2945 3695 C 2862 3734 2634 3789 2523 3797 C 2464 3801 2430 3807 2430 3814 C 2430 3835 2518 3981 2556 4023 C 2619 4092 2702 4160 2760 4190 L 2815 4219 L 2750 4214 C 2530 4199 2457 4188 2363 4161 C 2211 4117 1952 4095 1924 4123 C 1920 4127 1945 4180 1980 4242 C 2162 4569 2193 4611 2465 4889 C 2657 5085 2838 5249 3017 5388 C 3144 5487 3210 5551 3210 5576 C 3210 5583 3202 5598 3192 5610 C 3175 5631 3171 5632 3117 5620 C 3074 5610 3057 5610 3047 5619 C 3035 5628 3031 5627 3027 5617 C 3024 5609 2998 5594 2970 5584 C 2939 5573 2906 5551 2888 5532 C 2872 5513 2858 5499 2856 5501 C 2751 5652 2676 5851 2645 6062 C 2628 6174 2608 6240 2591 6240 C 2586 6240 2573 6214 2561 6183 C 2455 5894 2468 5536 2592 5364 L 2622 5321 L 2539 5240 C 2441 5145 2454 5141 2379 5295 C 2336 5384 2264 5597 2274 5607 C 2276 5609 2305 5589 2340 5563 C 2374 5537 2410 5509 2421 5501 C 2443 5485 2443 5485 2400 5575 C 2377 5622 2376 5636 2377 5785 C 2378 6011 2415 6184 2506 6384 C 2533 6442 2554 6490 2555 6490 C 2555 6490 2596 6453 2645 6408 z M 2745 3539 C 2767 3533 2819 3516 2861 3499 L 2936 3469 L 2963 3306 C 2992 3132 3020 3025 3068 2911 C 3113 2805 3153 2748 3244 2663 C 3460 2461 3684 2377 3905 2415 C 4099 2449 4244 2520 4383 2650 C 4448 2710 4466 2736 4518 2837 C 4609 3016 4656 3186 4669 3380 L 4675 3475 L 4715 3488 C 4965 3570 5144 3579 5340 3520 L 5405 3500 L 5402 3452 C 5390 3247 5368 3146 5293 2971 C 5227 2815 5048 2482 5021 2466 C 5017 2463 5013 2507 5011 2563 C 5010 2619 5003 2715 4995 2775 C 4976 2919 4899 3223 4886 3209 C 4882 3205 4854 3008 4845 2915 C 4834 2807 4809 2679 4784 2596 C 4731 2427 4591 2182 4441 1995 C 4344 1875 4049 1541 3927 1414 L 3819 1301 L 3683 1433 C 3476 1635 3185 1976 3072 2148 C 3000 2257 2873 2512 2842 2610 C 2794 2756 2764 2947 2748 3195 C 2745 3232 2742 3226 2707 3123 C 2644 2937 2629 2847 2621 2635 L 2615 2445 L 2546 2555 C 2508 2616 2446 2728 2409 2805 C 2278 3078 2232 3227 2227 3389 L 2225 3482 L 2275 3501 C 2323 3519 2445 3545 2520 3553 C 2569 3558 2698 3550 2745 3539 z" stroke-linecap="round" />
</g>
		<g transform="matrix(0.13 0 0 -0.13 1.2 -184.92)"  >
<path style="stroke: none; stroke-width: 1; stroke-dasharray: none; stroke-linecap: butt; stroke-dashoffset: 0; stroke-linejoin: miter; stroke-miterlimit: 4; fill: rgb(255,255,255); fill-rule: nonzero; opacity: 1;" vector-effect="non-scaling-stroke"  transform=" translate(-3819.01, -5296.49)" d="M 3745 5418 C 3734 5412 3711 5394 3693 5377 L 3661 5347 L 3690 5306 C 3706 5283 3742 5240 3770 5210 C 3817 5159 3821 5156 3833 5174 C 3839 5184 3875 5229 3912 5274 C 3949 5318 3978 5360 3977 5365 C 3972 5379 3831 5429 3795 5429 C 3779 5429 3756 5424 3745 5418 z" stroke-linecap="round" />
</g>
		<g transform="matrix(0.13 0 0 -0.13 0.85 -135.19)"  >
<path style="stroke: none; stroke-width: 1; stroke-dasharray: none; stroke-linecap: butt; stroke-dashoffset: 0; stroke-linejoin: miter; stroke-miterlimit: 4; fill: rgb(255,255,255); fill-rule: nonzero; opacity: 1;" vector-effect="non-scaling-stroke"  transform=" translate(-3816.36, -4923.55)" d="M 4215 5211 C 4105 5204 4106 5204 3942 5036 L 3820 4910 L 3685 5042 C 3611 5115 3542 5179 3533 5185 C 3512 5197 3300 5209 3300 5198 C 3300 5193 3304 5190 3309 5190 C 3333 5190 3565 4934 3726 4729 C 3807 4627 3815 4619 3827 4636 C 3843 4659 3908 4739 4010 4864 C 4050 4914 4144 5015 4217 5088 C 4318 5188 4345 5220 4328 5218 C 4315 5217 4264 5214 4215 5211 z" stroke-linecap="round" />
</g>
		<g transform="matrix(0.13 0 0 -0.13 -98.88 -28.97)"  >
<path style="stroke: none; stroke-width: 1; stroke-dasharray: none; stroke-linecap: butt; stroke-dashoffset: 0; stroke-linejoin: miter; stroke-miterlimit: 4; fill: rgb(255,255,255); fill-rule: nonzero; opacity: 1;" vector-effect="non-scaling-stroke"  transform=" translate(-3068.42, -4126.92)" d="M 2602 4761 C 2579 4755 2579 4754 2597 4739 C 2625 4714 2811 4621 2848 4614 C 2872 4609 2882 4601 2886 4581 C 2914 4456 2964 4368 3038 4316 C 3085 4284 3202 4251 3281 4249 L 3337 4247 L 3343 4141 C 3349 4050 3368 3906 3420 3560 L 3432 3485 L 3491 3485 L 3549 3485 L 3552 3955 C 3554 4214 3552 4433 3547 4442 C 3534 4472 3381 4598 3301 4644 C 3217 4693 3095 4733 2955 4755 C 2865 4770 2646 4774 2602 4761 z M 3159 4559 C 3184 4548 3223 4523 3248 4503 L 3292 4467 L 3244 4448 C 3203 4431 3189 4430 3157 4440 C 3112 4453 3060 4518 3060 4562 C 3060 4588 3062 4590 3088 4584 C 3103 4580 3135 4569 3159 4559 z" stroke-linecap="round" />
</g>
		<g transform="matrix(0.13 0 0 -0.13 99.14 -28.96)"  >
<path style="stroke: none; stroke-width: 1; stroke-dasharray: none; stroke-linecap: butt; stroke-dashoffset: 0; stroke-linejoin: miter; stroke-miterlimit: 4; fill: rgb(255,255,255); fill-rule: nonzero; opacity: 1;" vector-effect="non-scaling-stroke"  transform=" translate(-4553.57, -4126.8)" d="M 4655 4754 C 4469 4721 4311 4651 4200 4553 C 4164 4521 4119 4482 4099 4465 L 4064 4435 L 4071 3962 C 4075 3702 4080 3487 4082 3485 C 4083 3483 4111 3486 4142 3492 L 4199 3502 L 4210 3553 C 4223 3611 4230 3675 4261 4005 C 4273 4132 4283 4236 4284 4237 C 4285 4239 4321 4245 4363 4250 C 4498 4269 4578 4305 4645 4378 C 4683 4419 4729 4513 4736 4564 L 4743 4609 L 4804 4630 C 4867 4650 5013 4728 5040 4755 C 5052 4768 5035 4770 4895 4769 C 4806 4769 4700 4762 4655 4754 z M 4565 4558 C 4550 4489 4486 4420 4438 4420 C 4408 4420 4340 4451 4340 4465 C 4340 4487 4418 4542 4483 4566 C 4568 4597 4573 4597 4565 4558 z" stroke-linecap="round" />
</g>
		<g transform="matrix(0.13 0 0 -0.13 0.48 118.35)"  >
<path style="stroke: none; stroke-width: 1; stroke-dasharray: none; stroke-linecap: butt; stroke-dashoffset: 0; stroke-linejoin: miter; stroke-miterlimit: 4; fill: rgb(255,255,255); fill-rule: nonzero; opacity: 1;" vector-effect="non-scaling-stroke"  transform=" translate(-3813.57, -3022)" d="M 3645 3260 C 3574 3256 3507 3252 3498 3251 C 3482 3250 3480 3238 3480 3153 C 3480 3077 3484 3049 3498 3029 C 3523 2991 3593 2931 3705 2851 L 3803 2780 L 3859 2810 C 3925 2846 4006 2906 4082 2975 L 4137 3026 L 4143 3137 C 4150 3238 4149 3249 4133 3254 C 4098 3263 3773 3268 3645 3260 z" stroke-linecap="round" />
</g>
</g>
</g>
</svg>